<svg xmlns="http://www.w3.org/2000/svg" width="91.862" height="105.521" viewBox="0 0 91.862 105.521">
  <path id="ico_online" data-name="ico online" d="M62.689,57.576,72.3,59.482a9.793,9.793,0,1,0,.994-4.95l-9.94-1.973a15.713,15.713,0,0,0-4.105-10.148l13.4-18.929a12.246,12.246,0,1,0-4.118-2.921l-13.241,18.7a15.734,15.734,0,0,0-19.225,3.009L18.708,28.8a9.813,9.813,0,1,0-3.242,3.874l17.776,13.8A15.74,15.74,0,0,0,36.98,64.693L26.332,79.752a13.031,13.031,0,1,0,3.862,3.282L41.212,67.449a15.719,15.719,0,0,0,12.11.266L66.494,87.173A11.054,11.054,0,1,0,70.6,84.24l-12.929-19.1a15.816,15.816,0,0,0,5.013-7.565m19.375-3.449a4.742,4.742,0,1,1-4.742,4.742,4.742,4.742,0,0,1,4.742-4.742M77.483,5.108a7.164,7.164,0,1,1-7.164,7.164,7.164,7.164,0,0,1,7.164-7.164M9.833,29.417a4.742,4.742,0,1,1,4.742-4.742,4.747,4.747,0,0,1-4.742,4.742M20.019,99.051A7.947,7.947,0,1,1,27.967,91.1a7.947,7.947,0,0,1-7.947,7.947M74.8,88.462a6.024,6.024,0,1,1-6.024,6.024A6.031,6.031,0,0,1,74.8,88.462M47.586,63.752A10.725,10.725,0,1,1,58.312,53.027,10.737,10.737,0,0,1,47.586,63.752" transform="translate(0)" fill="#b20d1b"/>
</svg>
