<svg xmlns="http://www.w3.org/2000/svg" width="70.105" height="64.158" viewBox="0 0 70.105 64.158">
  <path id="ico_terreno" data-name="ico terreno" d="M1.158,64.158a1.151,1.151,0,0,1-.92-.454,1.166,1.166,0,0,1-.2-1.011L8.875,30.3a1.159,1.159,0,0,1,1.117-.853H47.115V19.987H36.495a1.16,1.16,0,0,1-1.159-1.159V1.159A1.16,1.16,0,0,1,36.495,0H60.053a1.16,1.16,0,0,1,1.159,1.159V18.827a1.16,1.16,0,0,1-1.159,1.159H49.433v9.461h10.62a1.159,1.159,0,0,1,1.117.853l8.746,32.058.023.037a1.163,1.163,0,0,1-.992,1.763Zm1.516-2.318h64.7l-8.2-30.074H49.433v10.62a1.159,1.159,0,1,1-2.318,0V31.765H10.878Zm34.98-44.171h21.24V2.318H37.654ZM54.163,14.1a1.159,1.159,0,1,0,0-2.318H42.384a1.159,1.159,0,0,0,0,2.318Zm0-5.889a1.159,1.159,0,1,0,0-2.318H42.384a1.159,1.159,0,0,0,0,2.318Z" transform="translate(0)" fill="#b20d1b"/>
</svg>
