<svg xmlns="http://www.w3.org/2000/svg" width="19.252" height="17.326" viewBox="0 0 19.252 17.326">
  <path id="live_tv_FILL0_wght400_GRAD0_opsz24" d="M87.219-827.968l6.738-4.332-6.738-4.332Zm-1.444,5.294V-824.6h-3.85a1.854,1.854,0,0,1-1.36-.565,1.854,1.854,0,0,1-.566-1.36v-11.551a1.854,1.854,0,0,1,.566-1.36,1.854,1.854,0,0,1,1.36-.565h15.4a1.854,1.854,0,0,1,1.36.565,1.854,1.854,0,0,1,.566,1.36v11.551a1.854,1.854,0,0,1-.566,1.36,1.854,1.854,0,0,1-1.36.565h-3.85v1.925Zm-3.85-3.85h15.4v-11.551h-15.4Zm0,0v0Z" transform="translate(-80 840)" fill="#fff"/>
</svg>
