<svg xmlns="http://www.w3.org/2000/svg" width="15.401" height="19.252" viewBox="0 0 15.401 19.252">
  <path id="location_on_FILL0_wght400_GRAD0_opsz24" d="M167.7-870.374a1.854,1.854,0,0,0,1.36-.566,1.854,1.854,0,0,0,.566-1.36,1.854,1.854,0,0,0-.566-1.36,1.854,1.854,0,0,0-1.36-.565,1.854,1.854,0,0,0-1.36.565,1.854,1.854,0,0,0-.566,1.36,1.854,1.854,0,0,0,.566,1.36A1.854,1.854,0,0,0,167.7-870.374Zm0,7.075a26.489,26.489,0,0,0,4.356-4.9,7.474,7.474,0,0,0,1.42-3.91,5.815,5.815,0,0,0-1.672-4.3,5.579,5.579,0,0,0-4.1-1.672,5.579,5.579,0,0,0-4.1,1.672,5.815,5.815,0,0,0-1.672,4.3,7.474,7.474,0,0,0,1.42,3.91A26.489,26.489,0,0,0,167.7-863.3Zm0,2.551a32,32,0,0,1-5.788-6.124A9.524,9.524,0,0,1,160-872.107a7.444,7.444,0,0,1,2.322-5.751A7.693,7.693,0,0,1,167.7-880a7.693,7.693,0,0,1,5.378,2.142,7.444,7.444,0,0,1,2.322,5.751,9.524,9.524,0,0,1-1.913,5.234A32,32,0,0,1,167.7-860.748ZM167.7-872.3Z" transform="translate(-160 880)" fill="#fff"/>
</svg>
