<svg xmlns="http://www.w3.org/2000/svg" width="70.732" height="70.732" viewBox="0 0 70.732 70.732">
  <path id="ico_cobertura" data-name="ico cobertura" d="M68.619,37.588H57.332V25.421a1.036,1.036,0,1,0-2.072,0V37.588H53.187V10.828a2.069,2.069,0,0,0-2.067-2.067H38.469A2.069,2.069,0,0,0,36.4,10.828V37.588H34.33V10.828a2.069,2.069,0,0,0-2.067-2.067H19.611a2.069,2.069,0,0,0-2.067,2.067V37.588H15.473V6.689H55.26v13.9a1.036,1.036,0,1,0,2.072,0V6.689h.443a2.119,2.119,0,0,0,2.113-2.12V2.12A2.119,2.119,0,0,0,57.774,0H12.958a2.119,2.119,0,0,0-2.113,2.12V4.569a2.119,2.119,0,0,0,2.113,2.12H13.4v30.9H2.113A2.115,2.115,0,0,0,0,39.7v2.434a2.115,2.115,0,0,0,2.113,2.113h.069V64.072H2.113A2.115,2.115,0,0,0,0,66.185v2.434a2.115,2.115,0,0,0,2.113,2.113H32.949a1.036,1.036,0,0,0,0-2.072H2.113a.041.041,0,0,1-.041-.041V66.185a.041.041,0,0,1,.041-.041H68.619a.041.041,0,0,1,.041.041v2.434a.041.041,0,0,1-.041.041H37.784a1.036,1.036,0,0,0,0,2.072H68.619a2.115,2.115,0,0,0,2.113-2.113V66.185a2.115,2.115,0,0,0-2.113-2.113H68.55V44.249h.069a2.115,2.115,0,0,0,2.113-2.113V39.7A2.115,2.115,0,0,0,68.619,37.588ZM12.917,4.569V2.12a.044.044,0,0,1,.041-.048H57.774a.044.044,0,0,1,.041.048V4.569a.045.045,0,0,1-.041.048H12.958a.045.045,0,0,1-.041-.048m25.552,6.264,12.646-.006V37.588H38.474Zm-18.857,0,12.646-.006V37.588H19.617ZM66.478,64H4.254V44.249H66.478ZM68.66,42.136a.041.041,0,0,1-.041.041H2.113a.041.041,0,0,1-.041-.041V39.7a.041.041,0,0,1,.041-.041H68.619a.041.041,0,0,1,.041.041ZM9.346,61.159H11.97a2.2,2.2,0,0,0,2.2-2.2v-9.6a2.2,2.2,0,0,0-2.2-2.2H9.346a2.2,2.2,0,0,0-2.2,2.2v9.6a2.2,2.2,0,0,0,2.2,2.2m-.124-11.8a.125.125,0,0,1,.124-.124H11.97a.125.125,0,0,1,.124.124v9.6a.125.125,0,0,1-.124.124H9.346a.125.125,0,0,1-.124-.124Zm10.037,11.8h2.623a2.2,2.2,0,0,0,2.2-2.2v-9.6a2.2,2.2,0,0,0-2.2-2.2H19.259a2.2,2.2,0,0,0-2.2,2.2v9.6a2.2,2.2,0,0,0,2.2,2.2m-.124-11.8a.125.125,0,0,1,.124-.124h2.623a.125.125,0,0,1,.124.124v9.6a.125.125,0,0,1-.124.124H19.259a.125.125,0,0,1-.124-.124Zm9.987,11.8h2.623a2.2,2.2,0,0,0,2.2-2.2v-9.6a2.2,2.2,0,0,0-2.2-2.2H29.121a2.2,2.2,0,0,0-2.2,2.2v9.6a2.2,2.2,0,0,0,2.2,2.2M29,49.358a.125.125,0,0,1,.124-.124h2.623a.125.125,0,0,1,.124.124v9.6a.125.125,0,0,1-.124.124H29.121A.125.125,0,0,1,29,58.963Zm10.037,11.8h2.623a2.2,2.2,0,0,0,2.2-2.2v-9.6a2.2,2.2,0,0,0-2.2-2.2H39.034a2.2,2.2,0,0,0-2.2,2.2v9.6a2.2,2.2,0,0,0,2.2,2.2m-.124-11.8a.125.125,0,0,1,.124-.124h2.623a.125.125,0,0,1,.124.124v9.6a.125.125,0,0,1-.124.124H39.034a.125.125,0,0,1-.124-.124Zm10.014,11.8h2.623a2.2,2.2,0,0,0,2.2-2.2v-9.6a2.2,2.2,0,0,0-2.2-2.2H48.923a2.2,2.2,0,0,0-2.2,2.2v9.6a2.2,2.2,0,0,0,2.2,2.2m-.125-11.8a.125.125,0,0,1,.124-.124h2.623a.125.125,0,0,1,.124.124v9.6a.125.125,0,0,1-.124.124H48.923a.125.125,0,0,1-.124-.124Zm9.987,11.8h2.623a2.2,2.2,0,0,0,2.2-2.2v-9.6a2.2,2.2,0,0,0-2.2-2.2H58.785a2.2,2.2,0,0,0-2.2,2.2v9.6a2.2,2.2,0,0,0,2.2,2.2m-.124-11.8a.125.125,0,0,1,.124-.124h2.623a.125.125,0,0,1,.124.124v9.6a.125.125,0,0,1-.124.124H58.785a.125.125,0,0,1-.124-.124ZM43.712,14.819a1.036,1.036,0,1,0-1.465,1.465l3.248,3.248a1.036,1.036,0,0,0,1.465-1.465Zm3.619-1.994a1.036,1.036,0,0,0-1.465,1.465l1.624,1.624a1.036,1.036,0,1,0,1.465-1.465Z" fill="#b20d1b"/>
</svg>
