<svg xmlns="http://www.w3.org/2000/svg" width="71.175" height="62.26" viewBox="0 0 71.175 62.26">
  <path id="ico_corretor" data-name="ico corretor" d="M15.741,51.463A1.043,1.043,0,0,1,14.7,52.506H11.773a1.043,1.043,0,0,1,0-2.085H14.7a1.043,1.043,0,0,1,1.043,1.043m21.453-4.727-.616,14.526a1.043,1.043,0,0,1-1.041,1h-.045a1.043,1.043,0,0,1-1-1.086l.616-14.526a4.8,4.8,0,0,0-.661-2.626l-2.736,3.284a5.8,5.8,0,0,0-1.341,3.7V61.218a1.043,1.043,0,0,1-2.085,0V51.009a7.885,7.885,0,0,1,1.824-5.039l2.909-3.491a4.733,4.733,0,0,0-.791-.444L27.793,40.1l-3.135,5.089a2.018,2.018,0,0,1-3.028.477l-1.987-1.7V61.218a1.043,1.043,0,0,1-2.085,0V43.969l-1.987,1.7a2.018,2.018,0,0,1-3.028-.477L9.408,40.1,4.971,42.036a4.728,4.728,0,0,0-.791.444l2.909,3.491a7.886,7.886,0,0,1,1.824,5.039V61.218a1.043,1.043,0,1,1-2.085,0V51.009a5.8,5.8,0,0,0-1.341-3.7L2.751,44.022a4.8,4.8,0,0,0-.661,2.626l.616,14.526a1.043,1.043,0,0,1-1,1.086H1.663a1.043,1.043,0,0,1-1.041-1L.006,46.736a6.939,6.939,0,0,1,4.13-6.611L9.228,37.9l2.783-2.783a1.037,1.037,0,0,1,.67-.3v-1.64A10.769,10.769,0,0,1,8,26.166a2.99,2.99,0,0,1-.823-.078,3.1,3.1,0,0,1-2.3-3.04V22.3a3.115,3.115,0,0,1,1.334-2.584,11.79,11.79,0,0,1-.358-2.88A12.156,12.156,0,0,1,11.707,6.527,6.76,6.76,0,0,1,18.6,0a6.76,6.76,0,0,1,6.893,6.527,12.156,12.156,0,0,1,5.854,10.308,11.79,11.79,0,0,1-.361,2.888,3.108,3.108,0,0,1,1.336,2.564v.76a3.1,3.1,0,0,1-2.3,3.04,3,3,0,0,1-.823.078,10.768,10.768,0,0,1-4.678,7.011v1.64a1.037,1.037,0,0,1,.67.3L27.973,37.9l5.091,2.222a6.939,6.939,0,0,1,4.131,6.612M13.958,5.418a13.222,13.222,0,0,1,9.286,0,4.9,4.9,0,0,0-9.286,0M18.6,32.863a8.7,8.7,0,0,0,8.557-7.127,2.033,2.033,0,0,1,2.111-1.655.891.891,0,0,0,.272-.023,1.018,1.018,0,0,0,.7-1.011v-.76a.984.984,0,0,0-.739-.979,2.3,2.3,0,0,0-1.027.137,1.04,1.04,0,0,1-1.185-.1l-1.223-1.005a25.519,25.519,0,0,1-6.438-.491,14.9,14.9,0,0,1-8.657-4.777,1.043,1.043,0,0,1,1.6-1.337c4.027,4.819,11.875,4.612,13.408,4.521a2,2,0,0,1,1.391.456l.784.644a4.782,4.782,0,0,1,.811-.134,9.706,9.706,0,0,0,.3-2.392A10.439,10.439,0,0,0,18.6,6.661,10.439,10.439,0,0,0,7.938,16.836a9.71,9.71,0,0,0,.3,2.4,2.987,2.987,0,0,1,1.573.693,5.528,5.528,0,0,0,.8-.855,1.043,1.043,0,0,1,1.667,1.252,7.563,7.563,0,0,1-1.687,1.642,1.454,1.454,0,0,1-2-.314.906.906,0,0,0-.892-.342.988.988,0,0,0-.736.992v.749a1.018,1.018,0,0,0,.7,1.011.9.9,0,0,0,.272.023,2.031,2.031,0,0,1,2.111,1.655A8.7,8.7,0,0,0,18.6,32.863m-1.535,8.785-4.318-4.318-1.606,1.606,3.136,5.09Zm5.37-5.248V34.243a10.779,10.779,0,0,1-7.669,0V36.4L18.6,40.235Zm3.625,2.537-1.606-1.606-4.318,4.318,2.788,2.379ZM71.17,41.37l-.808,19.89a1.043,1.043,0,0,1-1.041,1h-.043a1.043,1.043,0,0,1-1-1.084l.808-19.89a4.8,4.8,0,0,0-.166-1.457l-3.164,3.164a4.779,4.779,0,0,0-1.409,3.4V61.218a1.043,1.043,0,0,1-2.085,0V46.393a6.85,6.85,0,0,1,2.02-4.876l3.6-3.6a4.8,4.8,0,0,0-1.875-1.307l-5.269-2.032-4.029,6.043a2.983,2.983,0,0,1-2.2,1.318c-.1.01-.2.015-.3.015a2.975,2.975,0,0,1-1.467-.388l.865,19.61a1.043,1.043,0,0,1-1,1.088h-.047a1.043,1.043,0,0,1-1.041-1l-.8-18.2H48.566l-.8,18.2a1.043,1.043,0,0,1-1.041,1h-.047a1.043,1.043,0,0,1-1-1.088l.865-19.61a2.976,2.976,0,0,1-1.467.388c-.1,0-.2,0-.3-.015a2.983,2.983,0,0,1-2.2-1.318l-4.029-6.043-5.269,2.032a4.824,4.824,0,0,0-.973.509,1.043,1.043,0,0,1-1.172-1.725,6.9,6.9,0,0,1,1.394-.73l5.677-2.19,2.895-2.895a1.038,1.038,0,0,1,.67-.3v-2.3A10.753,10.753,0,0,1,39.051,21.6a2.976,2.976,0,0,1-.731-.058,3.086,3.086,0,0,1-2.394-3.06v-.748a3.09,3.09,0,0,1,1.7-2.8A26.035,26.035,0,0,1,36.9,8.877c0-3.007,1.38-4.467,2.538-5.162a5.493,5.493,0,0,1,2.146-.729A13.965,13.965,0,0,1,49.592.032c4.685-.253,8.371,1.009,10.658,3.651,2.365,2.731,3.124,6.812,2.2,11.819a3.125,3.125,0,0,1,.918,2.218v.76a3.086,3.086,0,0,1-2.394,3.06,2.983,2.983,0,0,1-.731.058,10.752,10.752,0,0,1-2.727,5.372v2.3a1.038,1.038,0,0,1,.67.3l2.895,2.895,5.677,2.19A6.893,6.893,0,0,1,71.17,41.37M49.649,28.295a8.7,8.7,0,0,0,8.557-7.126,2.031,2.031,0,0,1,2.111-1.655.884.884,0,0,0,.243-.017,1.011,1.011,0,0,0,.727-1.017v-.76a.984.984,0,0,0-.74-.979,2.25,2.25,0,0,0-.78.057,1.714,1.714,0,0,1-1.98-1.015l-.757-1.819c-2.723.545-10.9,1.661-15.026-3.472a1.043,1.043,0,1,1,1.626-1.306c4.037,5.026,13.665,2.585,13.762,2.56a1.044,1.044,0,0,1,1.226.608l.979,2.352a4.519,4.519,0,0,1,.889-.062c.674-4.138.053-7.444-1.812-9.6C56.824,2.912,53.723,1.9,49.7,2.114a11.745,11.745,0,0,0-6.978,2.64,1.053,1.053,0,0,1-.719.288,3.384,3.384,0,0,0-1.559.5,3.653,3.653,0,0,0-1.463,3.335,23.979,23.979,0,0,0,.745,5.876,2.983,2.983,0,0,1,1.131.6,5.534,5.534,0,0,0,.812-.877,1.043,1.043,0,0,1,1.673,1.244,7.569,7.569,0,0,1-1.71,1.672,1.454,1.454,0,0,1-2-.314.906.906,0,0,0-.892-.342.988.988,0,0,0-.736.992v.749a1.011,1.011,0,0,0,.727,1.017.894.894,0,0,0,.243.017,2.03,2.03,0,0,1,2.111,1.655,8.7,8.7,0,0,0,8.557,7.126m-1.525,8.9L41.893,31.74l-1.632,1.632,4.059,6.088a.908.908,0,0,0,1.4.138Zm2.515,3.784-.063-1.433-.927-.927-.927.927-.063,1.433Zm4.8-10.282v-2a10.79,10.79,0,0,1-11.571,0v2l5.785,5.062Zm3.6,2.679L57.4,31.74l-6.231,5.452L53.58,39.6a.908.908,0,0,0,1.4-.138ZM43.8,45.822h-3.9a1.043,1.043,0,1,0,0,2.085h3.9a1.043,1.043,0,0,0,0-2.085" transform="translate(0)" fill="#fff"/>
</svg>
