<svg xmlns="http://www.w3.org/2000/svg" width="12.567" height="11.17" viewBox="0 0 12.567 11.17">
  <path id="multiple_stop_FILL1_wght400_GRAD0_opsz24" d="M122.793-788.83,120-791.622l2.793-2.793.995.977-1.117,1.117h2.915v1.4H122.67l1.1,1.117Zm4.887-2.094a.675.675,0,0,1-.5-.2.676.676,0,0,1-.2-.5.676.676,0,0,1,.2-.5.676.676,0,0,1,.5-.2.676.676,0,0,1,.5.2.676.676,0,0,1,.2.5.676.676,0,0,1-.2.5A.675.675,0,0,1,127.68-790.924Zm2.793,0a.676.676,0,0,1-.5-.2.676.676,0,0,1-.2-.5.676.676,0,0,1,.2-.5.676.676,0,0,1,.5-.2.676.676,0,0,1,.5.2.676.676,0,0,1,.2.5.676.676,0,0,1-.2.5A.676.676,0,0,1,130.472-790.924Zm-.7-3.491-.995-.977,1.117-1.117h-2.915v-1.4H129.9l-1.1-1.117.977-.977,2.793,2.793Zm-7.68-2.094a.675.675,0,0,1-.5-.2.675.675,0,0,1-.2-.5.675.675,0,0,1,.2-.5.676.676,0,0,1,.5-.2.676.676,0,0,1,.5.2.676.676,0,0,1,.2.5.675.675,0,0,1-.2.5A.675.675,0,0,1,122.094-796.509Zm2.793,0a.675.675,0,0,1-.5-.2.675.675,0,0,1-.2-.5.675.675,0,0,1,.2-.5.676.676,0,0,1,.5-.2.676.676,0,0,1,.5.2.675.675,0,0,1,.2.5.675.675,0,0,1-.2.5A.675.675,0,0,1,124.887-796.509Z" transform="translate(-120 800)" fill="#b20d1b"/>
</svg>
