<svg xmlns="http://www.w3.org/2000/svg" width="96.175" height="79.976" viewBox="0 0 96.175 79.976">
  <path id="ico_portais" data-name="ico portais" d="M20.827,23.24a2.438,2.438,0,0,0,1.706-.706,2.4,2.4,0,0,0,.706-1.706,2.438,2.438,0,0,0-.706-1.706,2.465,2.465,0,0,0-3.393,0,2.4,2.4,0,0,0-.706,1.706,2.411,2.411,0,0,0,2.393,2.412m8.1,0a2.359,2.359,0,0,0,1.687-.706,2.4,2.4,0,0,0,.706-1.706,2.438,2.438,0,0,0-.706-1.706,2.465,2.465,0,0,0-3.393,0,2.4,2.4,0,0,0-.706,1.706,2.438,2.438,0,0,0,.706,1.706,2.526,2.526,0,0,0,1.706.706m8.119,0a2.413,2.413,0,0,0,1.706-4.118,2.465,2.465,0,0,0-3.393,0,2.4,2.4,0,0,0-.706,1.706,2.438,2.438,0,0,0,.706,1.706,2.406,2.406,0,0,0,1.687.706M96.175,73.269V17.043a6.7,6.7,0,0,0-6.707-6.707H17.023a6.717,6.717,0,0,0-6.707,6.707V73.269a6.7,6.7,0,0,0,6.707,6.707H89.467a6.717,6.717,0,0,0,6.707-6.707M17.023,15.121H89.467a1.9,1.9,0,0,1,1.9,1.9v9.492H15.12V17.043a1.921,1.921,0,0,1,1.9-1.922m-1.9,58.148V31.339H91.37V73.269a1.9,1.9,0,0,1-1.9,1.9H17.023a1.917,1.917,0,0,1-1.9-1.9M0,6.707V62.933a2.412,2.412,0,0,0,4.824,0V6.707a1.9,1.9,0,0,1,1.9-1.9H79.171a2.4,2.4,0,1,0,0-4.8H6.707A6.717,6.717,0,0,0,0,6.707" fill="#b20d1b"/>
</svg>
