<svg xmlns="http://www.w3.org/2000/svg" width="13.963" height="12.567" viewBox="0 0 13.963 12.567">
  <path id="location_away_FILL1_wght400_GRAD0_opsz24" d="M85.585-827.433v-1.326a1.375,1.375,0,0,1,.183-.689,1.407,1.407,0,0,1,.5-.515,7.018,7.018,0,0,1,1.684-.716,6.8,6.8,0,0,1,1.824-.244,6.8,6.8,0,0,1,1.824.244,7.019,7.019,0,0,1,1.684.716,1.407,1.407,0,0,1,.5.515,1.375,1.375,0,0,1,.183.689v1.326Zm-5.585,0v-8.378L85.585-840l3.753,2.827a3.355,3.355,0,0,0-2.182,1.143,3.378,3.378,0,0,0-.873,2.313,3.439,3.439,0,0,0,.148,1.021,3.448,3.448,0,0,0,.428.9q-.349.14-.672.288a6.135,6.135,0,0,0-.637.34,2.664,2.664,0,0,0-.995,1.021,2.8,2.8,0,0,0-.367,1.388v1.326Zm9.774-4.189a2.02,2.02,0,0,1-1.484-.611,2.02,2.02,0,0,1-.611-1.484,2.02,2.02,0,0,1,.611-1.484,2.02,2.02,0,0,1,1.484-.611,2.02,2.02,0,0,1,1.484.611,2.02,2.02,0,0,1,.611,1.484,2.02,2.02,0,0,1-.611,1.484A2.02,2.02,0,0,1,89.774-831.622Z" transform="translate(-80 840)" fill="#b20d1b"/>
</svg>
