<svg xmlns="http://www.w3.org/2000/svg" width="13.853" height="13.853" viewBox="0 0 13.853 13.853">
  <path id="subway_FILL0_wght400_GRAD0_opsz24" d="M80-866.147v-9.108a4.323,4.323,0,0,1,.762-2.554,4.662,4.662,0,0,1,2.147-1.636A7.264,7.264,0,0,1,84.9-879.9q1.056-.1,2.026-.1t2.026.1a7.264,7.264,0,0,1,1.991.459,4.662,4.662,0,0,1,2.147,1.636,4.323,4.323,0,0,1,.762,2.554v9.108Zm4.918-1.385H88.9l-1.039-1.039h-1.9Zm-1.108-4.848h6.234v-2.771H83.809Zm5.541,2.424a.67.67,0,0,0,.493-.2.67.67,0,0,0,.2-.493.67.67,0,0,0-.2-.494.67.67,0,0,0-.493-.2.67.67,0,0,0-.493.2.67.67,0,0,0-.2.494.67.67,0,0,0,.2.493A.67.67,0,0,0,89.35-869.957Zm-4.848,0a.67.67,0,0,0,.493-.2.67.67,0,0,0,.2-.493.67.67,0,0,0-.2-.494.67.67,0,0,0-.493-.2.67.67,0,0,0-.493.2.67.67,0,0,0-.2.494.67.67,0,0,0,.2.493A.67.67,0,0,0,84.5-869.957Zm-3.117,2.424h2.424v-.346l.727-.727a1.972,1.972,0,0,1-1.264-.684,2.012,2.012,0,0,1-.5-1.359v-4.5a1.62,1.62,0,0,1,1.29-1.714,10.547,10.547,0,0,1,2.866-.364,10.346,10.346,0,0,1,2.944.364,1.607,1.607,0,0,1,1.212,1.714v4.5a2.012,2.012,0,0,1-.5,1.359,1.972,1.972,0,0,1-1.264.684l.727.727v.346h2.424v-7.723a3.035,3.035,0,0,0-.511-1.775,3.222,3.222,0,0,0-1.532-1.134,6.08,6.08,0,0,0-1.688-.372q-.926-.078-1.809-.078t-1.809.078a6.08,6.08,0,0,0-1.688.372A3.222,3.222,0,0,0,81.9-877.03a3.035,3.035,0,0,0-.511,1.775Zm0,0h0Z" transform="translate(-80 880)" fill="#b20d1b"/>
</svg>
