<svg xmlns="http://www.w3.org/2000/svg" width="17.986" height="19.985" viewBox="0 0 17.986 19.985">
  <path id="share_FILL0_wght400_GRAD0_opsz24" d="M134.989-860.015a2.891,2.891,0,0,1-2.123-.874,2.891,2.891,0,0,1-.874-2.123,2.74,2.74,0,0,1,.025-.362,1.834,1.834,0,0,1,.075-.337l-7.045-4.1a3.291,3.291,0,0,1-.949.587,2.9,2.9,0,0,1-1.1.212,2.891,2.891,0,0,1-2.123-.874,2.891,2.891,0,0,1-.874-2.123,2.891,2.891,0,0,1,.874-2.123,2.891,2.891,0,0,1,2.123-.874,2.9,2.9,0,0,1,1.1.212,3.292,3.292,0,0,1,.949.587l7.045-4.1a1.834,1.834,0,0,1-.075-.337,2.741,2.741,0,0,1-.025-.362,2.891,2.891,0,0,1,.874-2.123,2.891,2.891,0,0,1,2.123-.874,2.891,2.891,0,0,1,2.123.874,2.891,2.891,0,0,1,.874,2.123,2.891,2.891,0,0,1-.874,2.123,2.891,2.891,0,0,1-2.123.874,2.9,2.9,0,0,1-1.1-.212,3.293,3.293,0,0,1-.949-.587l-7.045,4.1a1.838,1.838,0,0,1,.075.337,2.745,2.745,0,0,1,.025.362,2.742,2.742,0,0,1-.025.362,1.835,1.835,0,0,1-.075.337l7.045,4.1a3.29,3.29,0,0,1,.949-.587,2.9,2.9,0,0,1,1.1-.212,2.891,2.891,0,0,1,2.123.874,2.891,2.891,0,0,1,.874,2.123,2.891,2.891,0,0,1-.874,2.123A2.891,2.891,0,0,1,134.989-860.015Zm0-15.988a.967.967,0,0,0,.712-.287.967.967,0,0,0,.287-.712.967.967,0,0,0-.287-.712.967.967,0,0,0-.712-.287.967.967,0,0,0-.712.287.967.967,0,0,0-.287.712.967.967,0,0,0,.287.712A.967.967,0,0,0,134.989-876ZM123-869.008a.967.967,0,0,0,.712-.287.967.967,0,0,0,.287-.712.967.967,0,0,0-.287-.712.967.967,0,0,0-.712-.287.967.967,0,0,0-.712.287.967.967,0,0,0-.287.712.967.967,0,0,0,.287.712A.967.967,0,0,0,123-869.008Zm11.991,6.995a.967.967,0,0,0,.712-.287.967.967,0,0,0,.287-.712.967.967,0,0,0-.287-.712.967.967,0,0,0-.712-.287.967.967,0,0,0-.712.287.967.967,0,0,0-.287.712.967.967,0,0,0,.287.712A.967.967,0,0,0,134.989-862.014ZM134.989-877ZM123-870.008ZM134.989-863.013Z" transform="translate(-120 880)"/>
</svg>
