<svg xmlns="http://www.w3.org/2000/svg" width="78.328" height="69.495" viewBox="0 0 78.328 69.495">
  <path id="ico_comerciais" data-name="ico comerciais" d="M73.266,47.762a1.147,1.147,0,0,0-1.147,1.147V67.2H48.468V45.487a2.681,2.681,0,0,0-2.677-2.678H32.537a2.681,2.681,0,0,0-2.677,2.678V67.2H6.209V48.909a1.147,1.147,0,1,0-2.295,0V67.737A1.762,1.762,0,0,0,5.674,69.5H72.654a1.762,1.762,0,0,0,1.759-1.759V48.909a1.147,1.147,0,0,0-1.147-1.147M32.154,67.2V45.487a.383.383,0,0,1,.382-.383H45.791a.383.383,0,0,1,.382.383V67.2Zm35.661-4.533a2.446,2.446,0,0,0,2.443-2.443V47.7a2.445,2.445,0,0,0-2.443-2.442h-14.2A2.445,2.445,0,0,0,51.173,47.7V60.225a2.446,2.446,0,0,0,2.443,2.443ZM53.468,60.225V47.7a.148.148,0,0,1,.148-.147h14.2a.148.148,0,0,1,.148.147V60.225a.148.148,0,0,1-.148.148h-14.2a.148.148,0,0,1-.148-.148M24.712,62.668a2.446,2.446,0,0,0,2.443-2.443V47.7a2.445,2.445,0,0,0-2.443-2.442h-14.2A2.445,2.445,0,0,0,8.069,47.7V60.225a2.446,2.446,0,0,0,2.443,2.443ZM10.364,60.225V47.7a.148.148,0,0,1,.148-.147h14.2a.148.148,0,0,1,.148.147V60.225a.148.148,0,0,1-.148.148h-14.2a.148.148,0,0,1-.148-.148M74.956,16.916a2.226,2.226,0,0,1,2.224-2.223,1.147,1.147,0,0,0,1.147-1.147V10.739A1.147,1.147,0,0,0,77.18,9.592H58.24a1.147,1.147,0,0,0,0,2.295H76.033v.66a4.536,4.536,0,0,0-3.224,3.222H54.759V5.584A5.589,5.589,0,0,0,49.176,0H29.152A5.589,5.589,0,0,0,23.57,5.584V9.592H1.147A1.147,1.147,0,0,0,0,10.739v2.808a1.147,1.147,0,0,0,1.147,1.147,2.226,2.226,0,0,1,2.224,2.223,1.147,1.147,0,0,0,.548.979v7.837H1.855A1.762,1.762,0,0,0,.1,27.491v6.248A1.762,1.762,0,0,0,1.855,35.5H3.92v8.829a1.147,1.147,0,1,0,2.295,0V35.5H72.208V44.33a1.147,1.147,0,0,0,2.295,0V35.5h2.065a1.762,1.762,0,0,0,1.76-1.759V27.491a1.762,1.762,0,0,0-1.76-1.759H74.5v-7.9a1.147,1.147,0,0,0,.453-.914M25.864,5.584A3.292,3.292,0,0,1,29.152,2.3H49.175a3.291,3.291,0,0,1,3.288,3.288V18.1a3.291,3.291,0,0,1-3.288,3.288H29.152A3.291,3.291,0,0,1,25.864,18.1V5.584ZM76.033,33.2H2.39V28.027H76.033ZM6.214,25.732V18.064H20.128a1.147,1.147,0,1,0,0-2.295H5.519a4.536,4.536,0,0,0-3.224-3.222v-.66H23.569V18.1a5.589,5.589,0,0,0,5.583,5.583H49.175A5.589,5.589,0,0,0,54.758,18.1v-.039h17.45v7.668ZM34.727,55.005h-.918a1.147,1.147,0,0,0,0,2.295h.918a1.147,1.147,0,0,0,0-2.295M30.945,6.875h1.406l1.443,6.9a2.914,2.914,0,0,0,2.839,2.307h6.813A2.916,2.916,0,0,0,46.16,14.2l2.25-5.956a1.845,1.845,0,0,0-1.725-2.5H37.048a1.147,1.147,0,1,0,0,2.295h8.985l-2.02,5.347a.609.609,0,0,1-.567.392H36.633a.609.609,0,0,1-.593-.482L34.592,6.379a2.271,2.271,0,0,0-2.214-1.8H30.946a1.147,1.147,0,0,0,0,2.295m5.886,10.166h-.306a1.147,1.147,0,1,0,0,2.295h.306a1.147,1.147,0,0,0,0-2.295m4.972,0H41.5a1.147,1.147,0,0,0,0,2.295H41.8a1.147,1.147,0,1,0,0-2.295" transform="translate(0 -0.001)" fill="#b20d1b"/>
</svg>
