<svg xmlns="http://www.w3.org/2000/svg" width="64.895" height="47.712" viewBox="0 0 64.895 47.712">
  <path id="ico_escola" data-name="ico escola" d="M62.517,9.77A290.866,290.866,0,0,0,34.617.306a7.86,7.86,0,0,0-4.339,0c-6.4,1.835-12.572,3.806-18.349,5.859a.951.951,0,1,0,.636,1.792c5.739-2.039,11.875-4,18.236-5.823a5.961,5.961,0,0,1,3.291,0,288.968,288.968,0,0,1,27.717,9.4,1.886,1.886,0,0,1,0,3.5c-4.239,1.7-8.706,3.345-13.365,4.923a.948.948,0,0,0-.332-.265L32.856,12.426a.951.951,0,1,0-.818,1.716l13.938,6.639q-5.766,1.9-11.884,3.654a5.962,5.962,0,0,1-3.291,0,288.979,288.979,0,0,1-27.717-9.4,1.886,1.886,0,0,1,0-3.5C5,10.765,7,10,9,9.251a.951.951,0,1,0-.662-1.782c-2.024.752-4.031,1.526-5.965,2.3a3.787,3.787,0,0,0,0,7.03Q7.571,18.883,13.2,20.848v10.5a2.834,2.834,0,0,0,1.732,2.616A145.5,145.5,0,0,0,31.8,39.813a2.87,2.87,0,0,0,1.548,0c4.777-1.356,9.268-2.847,13.4-4.447v2.979a3.549,3.549,0,0,0-2.593,3.413v5.005a.951.951,0,0,0,.951.951H50.3a.951.951,0,0,0,.951-.951V41.757a3.549,3.549,0,0,0-2.593-3.413V34.611q.792-.322,1.566-.648a2.833,2.833,0,0,0,1.735-2.616V29.841a.951.951,0,1,0-1.9,0v1.506a.936.936,0,0,1-.573.865q-.41.173-.826.345V21.894q.7-.237,1.4-.476v4.621a.951.951,0,0,0,1.9,0v-5.28q5.477-1.921,10.563-3.958a3.787,3.787,0,0,0,0-7.03ZM49.347,41.757v4.055H46.062V41.757a1.642,1.642,0,0,1,3.285,0m-2.593-8.432c-4.265,1.68-8.933,3.243-13.916,4.657a.982.982,0,0,1-.52,0A143.549,143.549,0,0,1,15.67,32.212a.936.936,0,0,1-.572-.865V21.506Q22.39,24,30.278,26.263a7.861,7.861,0,0,0,4.339,0q6.243-1.791,12.137-3.735Z" transform="translate(0 -0.001)" fill="#b20d1b"/>
</svg>
