<svg xmlns="http://www.w3.org/2000/svg" width="85.042" height="68.752" viewBox="0 0 85.042 68.752">
  <path id="ico_casa" data-name="ico casa" d="M17.422,12.751a1.87,1.87,0,0,0,1.548.211v2.131l-1.4.553a1.246,1.246,0,1,0,.917,2.316l10.177-4.029c.027-.01.053-.02.078-.031L41.739,8.758a2.11,2.11,0,0,1,1.562,0L73.306,20.637A2.124,2.124,0,0,1,74.5,23.391a1.246,1.246,0,0,0,2.316.917,4.619,4.619,0,0,0-2.591-5.989L44.219,6.441a4.6,4.6,0,0,0-3.4,0L29.5,10.926V7.945l1.357-.65a1.9,1.9,0,0,0,1.072-1.7V1.888a1.886,1.886,0,0,0-2.7-1.7L17.613,5.747a1.9,1.9,0,0,0-1.072,1.7v3.706a1.876,1.876,0,0,0,.881,1.6M27,11.912l-5.541,2.194V11.793L27,9.139ZM19.033,7.829l10.4-4.982V5.213l-1.682.806c-.027.011-.052.023-.077.037L19.69,9.88l-.021.01-.635.3ZM36.6,53.878a1.246,1.246,0,0,0-1.246,1.246v1.455a1.246,1.246,0,1,0,2.492,0V55.124A1.246,1.246,0,0,0,36.6,53.878M48.29,57.825H61.347a2.01,2.01,0,0,0,1.947-2.063V45.014a2.009,2.009,0,0,0-1.947-2.062H48.29a2.009,2.009,0,0,0-1.946,2.062V55.762a2.01,2.01,0,0,0,1.946,2.063m.545-6.191h4.738v3.7H48.835Zm7.229,0H60.8v3.7H56.064ZM60.8,49.142H56.064v-3.7H60.8Zm-7.229,0H48.835v-3.7h4.738ZM82.181,66.26H79.188v-2.53a6.678,6.678,0,0,0,3.725-1.773,6.746,6.746,0,0,0,.453-9.365,1.164,1.164,0,0,1-.221-1.141,5.1,5.1,0,1,0-9.693.033,1.1,1.1,0,0,1-.213,1.087A6.747,6.747,0,0,0,76.7,63.6V66.26H70.3V41.776a1.246,1.246,0,1,0-2.491,0V66.26H42.065V40.68a2.778,2.778,0,0,0-2.775-2.775H27.244a2.778,2.778,0,0,0-2.775,2.775V66.26H17.231V25.706L42.52,15.693,67.81,25.706v5.24a1.246,1.246,0,1,0,2.491,0V26.692l.526.208a4.592,4.592,0,0,0,1.7.325,1.246,1.246,0,0,0,0-2.491,2.117,2.117,0,0,1-.78-.15l-2.174-.861a1.065,1.065,0,0,0-.114-.045L42.979,13.2a1.243,1.243,0,0,0-.917,0L15.581,23.679c-.037.013-.074.027-.11.044l-2.175.861a2.122,2.122,0,1,1-1.563-3.946l1.967-.779a1.246,1.246,0,1,0-.917-2.316l-1.967.778a4.614,4.614,0,0,0,3.4,8.579l.526-.208V66.26h-7.1v-2.53a6.678,6.678,0,0,0,3.726-1.773,6.745,6.745,0,0,0,.453-9.365,1.163,1.163,0,0,1-.22-1.141,5.1,5.1,0,1,0-9.693.033,1.1,1.1,0,0,1-.213,1.087A6.747,6.747,0,0,0,5.149,63.6V66.26H2.86a1.246,1.246,0,0,0,0,2.492H82.181a1.246,1.246,0,0,0,0-2.492m-8.135-8.952a4.233,4.233,0,0,1,1.059-3.085,3.612,3.612,0,0,0,.712-3.526,2.608,2.608,0,0,1,2.476-3.429c.047,0,.094,0,.142,0a2.609,2.609,0,0,1,2.341,3.41,3.633,3.633,0,0,0,.718,3.556A4.259,4.259,0,0,1,79.188,61.2V58.721a1.246,1.246,0,0,0-2.492,0v2.257a4.315,4.315,0,0,1-2.65-3.671m-71.547,0a4.233,4.233,0,0,1,1.059-3.085A3.612,3.612,0,0,0,4.27,50.7a2.609,2.609,0,0,1,2.477-3.429c.047,0,.094,0,.142,0A2.609,2.609,0,0,1,9.23,50.68a3.633,3.633,0,0,0,.717,3.556A4.257,4.257,0,0,1,7.641,61.2v-2.48a1.246,1.246,0,0,0-2.492,0v2.257A4.314,4.314,0,0,1,2.5,57.307M26.96,40.68a.284.284,0,0,1,.283-.283H39.29a.284.284,0,0,1,.284.283V66.26H26.96Z" transform="translate(0.001 0)" fill="#b20d1b"/>
</svg>
