<svg xmlns="http://www.w3.org/2000/svg" width="60.524" height="59.516" viewBox="0 0 60.524 59.516">
  <path id="ico_imovel" data-name="ico imovel" d="M56.489,57.5V9.079h2.017A1.009,1.009,0,0,0,59.516,8.07V1.009A1.009,1.009,0,0,0,58.507,0c-.03,0-.059,0-.088,0L24.121,3.03a1.009,1.009,0,0,0-.92,1V8.07A1.009,1.009,0,0,0,24.21,9.079h2.017V28.812a1.009,1.009,0,0,0,2.017,0V9.079H54.472V57.5H47.915V45.9a1.009,1.009,0,0,0-1.009-1.009H36.756A1.009,1.009,0,0,0,35.747,45.9v1.518A3.525,3.525,0,0,0,33.225,46.4c-2.649,0-4.035,2.537-4.035,5.044,0,.566-.218.809-.71,1.305a3.64,3.64,0,0,0-1.307,2.759,3.768,3.768,0,0,0,.558,1.988H17.086V44.385a1.009,1.009,0,0,0-1.009-1.009H10.024a1.009,1.009,0,0,0-1.009,1.009V57.5H5.989V39.685l12.1-5.3,12.1,5.3v5.708h2.017V42.364c.021,0,.042,0,.063,0h6.052a1.009,1.009,0,0,0,1.009-1.009V35.306A1.009,1.009,0,0,0,38.332,34.3H34.445L18.5,27.321a1.008,1.008,0,0,0-.809,0L1.55,34.382a1.009,1.009,0,0,0-.6.924v5a1.04,1.04,0,0,0,.72,1.005,1.009,1.009,0,0,0,.693-.042l1.613-.706V57.5H0v2.017H60.524V57.5ZM37.323,40.35H35.243V36.315h2.081ZM2.963,38.807V35.966l15.131-6.62,15.131,6.62v2.842l-1.009-.441v-.034h-.077L18.5,32.364a1.008,1.008,0,0,0-.809,0L4.049,38.332H3.972v.034ZM15.068,57.5H11.033v-12.1h4.035Zm20.175,0H31.208A2.174,2.174,0,0,1,29.19,55.51c0-.587.221-.834.721-1.338a3.6,3.6,0,0,0,1.3-2.726c0-2.394,1.32-3.026,2.017-3.026,1.6,0,2.017,1.98,2.017,3.026a3.6,3.6,0,0,0,1.3,2.726c.5.5.721.751.721,1.338A2.174,2.174,0,0,1,35.243,57.5m2.728-4.747c-.075-.076-.143-.145-.206-.211V46.906H45.9V57.5H38.72a3.767,3.767,0,0,0,.558-1.988,3.64,3.64,0,0,0-1.307-2.759M25.218,7.061v-2.1L57.5,2.11V7.061ZM20.112,45.393A1.009,1.009,0,0,0,19.1,46.4v5.044a1.009,1.009,0,0,0,1.009,1.009h6.052a1.009,1.009,0,0,0,1.009-1.009V46.4a1.009,1.009,0,0,0-1.009-1.009Zm5.044,5.044H21.12V47.411h4.035ZM32.28,20.175h6.052a1.009,1.009,0,0,0,1.009-1.009V13.114A1.009,1.009,0,0,0,38.332,12.1H32.28a1.009,1.009,0,0,0-1.009,1.009v6.052a1.009,1.009,0,0,0,1.009,1.009m1.009-6.052h4.035v4.035H33.288Zm11.1,6.052h6.052a1.009,1.009,0,0,0,1.009-1.009V13.114A1.009,1.009,0,0,0,50.437,12.1H44.385a1.009,1.009,0,0,0-1.009,1.009v6.052a1.009,1.009,0,0,0,1.009,1.009m1.009-6.052h4.035v4.035H45.393Zm-2.017,16.14a1.009,1.009,0,0,0,1.009,1.009h6.052a1.009,1.009,0,0,0,1.009-1.009V24.21A1.009,1.009,0,0,0,50.437,23.2H44.385a1.009,1.009,0,0,0-1.009,1.009Zm2.017-5.044h4.035v4.035H45.393ZM31.271,30.262a1.009,1.009,0,0,0,1.009,1.009h6.052a1.009,1.009,0,0,0,1.009-1.009V24.21A1.009,1.009,0,0,0,38.332,23.2H32.28a1.009,1.009,0,0,0-1.009,1.009Zm2.017-5.044h4.035v4.035H33.288Zm10.087,16.14a1.009,1.009,0,0,0,1.009,1.009h6.052a1.009,1.009,0,0,0,1.009-1.009V35.306A1.009,1.009,0,0,0,50.437,34.3H44.385a1.009,1.009,0,0,0-1.009,1.009Zm2.017-5.044h4.035V40.35H45.393Z" fill="#fff"/>
</svg>
