<svg xmlns="http://www.w3.org/2000/svg" width="55.287" height="55.278" viewBox="0 0 55.287 55.278">
  <path id="ico_história" data-name="ico história" d="M11.935,55.278A6.038,6.038,0,0,1,5.9,49.247a.784.784,0,0,1,.783-.783h4.465V44.233a.783.783,0,1,1,1.566,0v4.231H23.678a.783.783,0,1,1,0,1.566H7.52l.106.39a4.476,4.476,0,0,0,4.309,3.292h23.38l-.429-.508a5.814,5.814,0,0,1-1.317-2.91l-.039-.264H27.583a.783.783,0,1,1,0-1.566H34.29a.784.784,0,0,1,.783.783v.194a4.271,4.271,0,0,0,8.541,0V5.837a5.836,5.836,0,0,1,1.38-3.763l.429-.508H17.183a4.47,4.47,0,0,0-4.465,4.465v5.893a.783.783,0,0,1-1.566,0V6.031A6.038,6.038,0,0,1,17.183,0H49.45a5.844,5.844,0,0,1,5.837,5.837v7.936a.784.784,0,0,1-.783.783H45.179V49.441a5.843,5.843,0,0,1-5.837,5.837ZM49.45,1.567A4.275,4.275,0,0,0,45.18,5.837v7.152h8.541V5.837A4.275,4.275,0,0,0,49.45,1.567M21.213,46.948a.786.786,0,0,1-.681-.4l-2.28-3.993-.124-.033c-1.8-.489-7.913-2.483-10.865-7.6A59.094,59.094,0,0,1,4.2,28.509a.786.786,0,0,1,.056-.711.777.777,0,0,1,.163-.189l.471-.4-.938-.217a.783.783,0,0,1-.554-.479A63.97,63.97,0,0,1,.43,17.051c-.745-3.56-.529-5.461.7-6.162a1.867,1.867,0,0,1,.951-.245c1.3,0,3.081,1.11,5.454,3.394a71.292,71.292,0,0,1,7.387,8.651.778.778,0,0,1,.152.464v1.358l.4-.123a.8.8,0,0,1,.121-.027.782.782,0,0,1,.755.331c.931,1.349,1.725,2.591,2.36,3.693a15.948,15.948,0,0,1,1.023,13.381l-.052.136,2.212,3.874a.784.784,0,0,1-.679,1.172M6.069,28.906l.174.4a51.037,51.037,0,0,0,2.378,4.84c1.854,3.214,5.2,5.089,7.672,6.095l.826.336L10.274,28.588ZM3.4,13.4,11.262,27.16l.035.032a.778.778,0,0,1,.232.407l.01.046,7.1,12.44.17-.789a14.115,14.115,0,0,0-1.461-10.129c-.311-.539-.667-1.123-1.06-1.735l-.348-.543-.912,2.731a.783.783,0,0,1-1.526-.248V23.411l-.061-.082A70.7,70.7,0,0,0,6.682,15.4a21.2,21.2,0,0,0-2.839-2.407ZM1.626,14.633a21.366,21.366,0,0,0,.42,2.477,63.192,63.192,0,0,0,2.605,8.3l.059.154L9.13,26.584,2.2,14.449Zm35.05-.834a.783.783,0,1,0,0-1.566H19.656a.783.783,0,1,0,0,1.566Zm0,5.246a.783.783,0,1,0,0-1.566H19.656a.783.783,0,1,0,0,1.566Zm0,5.246a.783.783,0,1,0,0-1.566H19.656a.783.783,0,1,0,0,1.566Zm0,5.246a.783.783,0,1,0,0-1.566H27.648a.783.783,0,1,0,0,1.566ZM27.545,8.553a.783.783,0,1,0,0-1.566H19.656a.783.783,0,1,0,0,1.566Z" transform="translate(0)" fill="#fff"/>
</svg>
