<svg xmlns="http://www.w3.org/2000/svg" width="64.895" height="36.896" viewBox="0 0 64.895 36.896">
  <path id="ico_transport" data-name="ico transport" d="M49.064,21.3H47.392a.951.951,0,0,0,0,1.9h1.671a.951.951,0,1,0,0-1.9m15.828-5.414a3.078,3.078,0,0,0-.056-.477L62.7,4.624h0l-.423-2.141A3.086,3.086,0,0,0,59.261,0H3.088A3.091,3.091,0,0,0,0,3.088V28.513A3.091,3.091,0,0,0,3.088,31.6H6.1a6.247,6.247,0,0,0,12.349,0H20.9a.951.951,0,0,0,0-1.9H18.45A6.247,6.247,0,0,0,6.1,29.7H3.088A1.186,1.186,0,0,1,1.9,28.513V3.088A1.186,1.186,0,0,1,3.088,1.9H59.261a1.179,1.179,0,0,1,1.154.948l.2,1.007H48.123a1.684,1.684,0,0,0-1.682,1.682V15.8a3.048,3.048,0,0,0,1.236,2.45c1.863,1.369,6.029,3.06,15.315,3.479v6.384A1.587,1.587,0,0,1,61.407,29.7H58.794a6.248,6.248,0,0,0-12.349,0H25.327a.951.951,0,0,0,0,1.9H46.445a6.248,6.248,0,0,0,12.349,0h2.613a3.492,3.492,0,0,0,3.488-3.488v-12.1h0c0-.04,0-.08,0-.12M12.276,26.3a4.344,4.344,0,1,1-4.344,4.344A4.349,4.349,0,0,1,12.276,26.3m40.344,8.688a4.344,4.344,0,1,1,4.344-4.344,4.349,4.349,0,0,1-4.344,4.344M48.344,15.8V5.76H60.99l1.98,10.021c0,.018.005.036.008.054a1.181,1.181,0,0,1,.014.16s0,.009,0,.014v3.815C53.777,19.4,50.155,17.709,48.8,16.716a1.139,1.139,0,0,1-.46-.916M21.653,3.857H5.729A1.519,1.519,0,0,0,4.211,5.375V16.08A1.519,1.519,0,0,0,5.729,17.6H21.653A1.519,1.519,0,0,0,23.17,16.08V5.375a1.519,1.519,0,0,0-1.517-1.517M12.74,15.694H6.114V5.76H12.74Zm8.528,0H14.642V5.76h6.626ZM42.536,3.857H26.612a1.519,1.519,0,0,0-1.517,1.517V16.08A1.519,1.519,0,0,0,26.612,17.6H42.536a1.519,1.519,0,0,0,1.517-1.517V5.375a1.519,1.519,0,0,0-1.517-1.517m-.385,11.837H35.525V12.089a.951.951,0,1,0-1.9,0v3.606H27V5.76h6.626v1.9a.951.951,0,1,0,1.9,0V5.76h6.626Z" fill="#b20d1b"/>
</svg>
