<svg xmlns="http://www.w3.org/2000/svg" width="64.895" height="59.6" viewBox="0 0 64.895 59.6">
  <path id="ico_gastronomia" data-name="ico gastronomia" d="M62.126,30.459H59.873a27.208,27.208,0,0,0-2.489-9.839.949.949,0,1,0-1.722.8,25.323,25.323,0,0,1,2.308,9.039H14.487a.949.949,0,0,0,0,1.9H62.126a.871.871,0,0,1,.871.871v1.158a.871.871,0,0,1-.871.871H2.769a.871.871,0,0,1-.87-.871V33.228a.871.871,0,0,1,.87-.871h7.293a.949.949,0,1,0,0-1.9H6.925A25.58,25.58,0,0,1,30.74,6.657h.01q.388-.025.766-.039l.151-.005.268-.007c.17,0,.341-.006.511-.006.227,0,.454,0,.68.01l.2.006c.174.006.348.015.522.024l.277.016A25.6,25.6,0,0,1,53.552,17.72a.949.949,0,1,0,1.565-1.075A27.5,27.5,0,0,0,36.339,4.981a4.621,4.621,0,0,0,.739-2.506c0-.516-.23-1.467-1.772-2.034a9.517,9.517,0,0,0-5.718,0c-1.542.567-1.772,1.519-1.772,2.034a4.628,4.628,0,0,0,.735,2.5A27.486,27.486,0,0,0,5.022,30.458H2.769A2.773,2.773,0,0,0,0,33.228v1.158a2.772,2.772,0,0,0,2.769,2.77H13a11.782,11.782,0,0,0-1.458,1.177l-.019.018a.867.867,0,0,0-.082.088L6.93,43.912a2.617,2.617,0,0,0-3.573.741L1.585,47.266a2.626,2.626,0,0,0,.7,3.64l12.129,8.24a2.6,2.6,0,0,0,1.468.454,2.664,2.664,0,0,0,.5-.048,2.6,2.6,0,0,0,1.677-1.1l1.772-2.614a2.626,2.626,0,0,0-.7-3.64l-.069-.047a6.138,6.138,0,0,1,3.194-1.928,20.866,20.866,0,0,1,7.675.128,18.133,18.133,0,0,0,7.738-.417l3.5-.966a18,18,0,0,0,6.37-3.222l.042-.035,6-5.315a2.929,2.929,0,0,0,.893-3.237h7.657a2.772,2.772,0,0,0,2.769-2.769V33.228a2.772,2.772,0,0,0-2.769-2.769M32.447,1.9a4.447,4.447,0,0,1,2.732.615,2.733,2.733,0,0,1-1.21,2.229c-.187-.01-.371-.018-.555-.025l-.186-.006c-.265-.008-.526-.012-.782-.012-.182,0-.367,0-.554.006l-.271.007-.326.011-.372.018a2.733,2.733,0,0,1-1.209-2.229A4.447,4.447,0,0,1,32.447,1.9m6.808,35.715A3.153,3.153,0,0,0,39,37.156H48.11l-3.937,2.606-5.612,1.623-.191,0a3.229,3.229,0,0,0,.885-3.776m-10.294-.458-1.37.286-1.059-.286ZM18.255,54.77l-1.772,2.614a.723.723,0,0,1-1.006.193L3.349,49.337a.724.724,0,0,1-.192-1l1.773-2.614a.721.721,0,0,1,1-.192l.655.445h0l11.473,7.794a.724.724,0,0,1,.192,1M52.411,38.894a.844.844,0,0,0-.066.053l-6.008,5.321a16.11,16.11,0,0,1-5.68,2.866l-3.5.966a16.209,16.209,0,0,1-6.921.374,22.6,22.6,0,0,0-8.414-.1,8.063,8.063,0,0,0-4.344,2.705L8.51,44.98l4.355-5.289A8.937,8.937,0,0,1,18.6,37.156h.039a7.152,7.152,0,0,1,1.971.367l.418.115,6.286,1.7a.949.949,0,0,0,.441.012l8.233-1.717a1.416,1.416,0,0,1,1.076.209,1.275,1.275,0,0,1,.452.541A1.328,1.328,0,0,1,36.9,40.1l-2.809,1.487a.949.949,0,0,0,.465,1.788l4.166-.09a.951.951,0,0,0,.243-.037l5.871-1.7a.952.952,0,0,0,.26-.12l5.923-3.92c.5-.307,1.159-.559,1.511-.04a1.13,1.13,0,0,1-.122,1.429" transform="translate(0 -0.001)" fill="#b20d1b"/>
</svg>
