<svg xmlns="http://www.w3.org/2000/svg" width="59.611" height="63.395" viewBox="0 0 59.611 63.395">
  <path id="ico_lazer" data-name="ico lazer" d="M58.064,58.231a1.549,1.549,0,0,0,1.548-1.548V53.618a1.549,1.549,0,0,0-1.548-1.548H54.072V48.764h2.093a1.549,1.549,0,0,0,1.548-1.548v-7.54a1.549,1.549,0,0,0-1.548-1.548H48.69a.929.929,0,0,0,0,1.857h7.165v6.921h-29.8V39.986h18.3a.929.929,0,1,0,0-1.857H39.1V32.835a16.533,16.533,0,1,0-19.293-16.3q0,.617.045,1.223A15.224,15.224,0,0,0,.008,30.23a.929.929,0,0,0,.8,1.041.953.953,0,0,0,.121.008.929.929,0,0,0,.92-.809A13.364,13.364,0,0,1,20.139,19.84a16.55,16.55,0,0,0,8.26,11.2c.034.39.052.781.052,1.169a13.385,13.385,0,0,1-1.382,5.919H25.744A1.549,1.549,0,0,0,24.2,39.676v2.305a13.2,13.2,0,0,1-6.343,3.3V37.667l5.77-5.77a1.55,1.55,0,0,0,0-2.189l-1.715-1.714a1.548,1.548,0,0,0-2.189,0l-1.866,1.866V27.58a1.549,1.549,0,0,0-1.548-1.548H13.882a1.549,1.549,0,0,0-1.548,1.548v5.365l-2.017-2.017a1.55,1.55,0,0,0-2.189,0L6.414,32.643a1.55,1.55,0,0,0,0,2.189l5.92,5.92v4.526a13.363,13.363,0,0,1-10.4-10.755.929.929,0,0,0-1.83.319A15.22,15.22,0,0,0,12.334,47.171V61.537H2.274a.929.929,0,1,0,0,1.857H58.683a.929.929,0,1,0,0-1.857H56.446V58.231ZM39.1,21.653l4.04-4.04,1.277,1.277L39.1,24.207V21.653Zm-17.436-5.12A14.675,14.675,0,1,1,39.1,30.947V26.833l6.849-6.849a1.548,1.548,0,0,0,0-2.189l-1.715-1.714a1.548,1.548,0,0,0-2.189,0L39.1,19.027V9.313a1.55,1.55,0,0,0-1.548-1.548H35.127a1.549,1.549,0,0,0-1.548,1.548v5.428l-3.6-3.6a1.548,1.548,0,0,0-2.189,0l-1.715,1.714a1.548,1.548,0,0,0,0,2.189l7.508,7.508v1.225a.929.929,0,0,0,1.857,0V9.623h1.806V38.129H35.436V28.107a.929.929,0,1,0-1.857,0v2.84A14.667,14.667,0,0,1,21.664,16.533Zm11.915,3.388L27.6,13.945l1.277-1.277,4.7,4.7ZM30.305,31.932a16.462,16.462,0,0,0,3.274.9v5.294H29.11a15.261,15.261,0,0,0,1.2-5.919c0-.092,0-.185,0-.278m6.937,29.606H35.436V58.231h1.806Zm-3.663,0H27.32V58.231h6.259Zm24.175-5.164h-33.6V53.928h33.6v2.446Zm-20.512-4.3H35.436V48.764h1.806Zm-3.663,0H29.695V48.764h3.884Zm18.635,0H39.1V48.764H52.214ZM24.2,44.394v2.823a1.549,1.549,0,0,0,1.548,1.548h2.093v3.306H23.845A1.549,1.549,0,0,0,22.3,53.618v3.065a1.549,1.549,0,0,0,1.548,1.548h1.618v3.306H17.854V47.171A15.287,15.287,0,0,0,24.2,44.394M20.815,29.526,22.092,30.8l-4.238,4.238V32.487ZM7.946,33.738l1.277-1.277,3.111,3.111v2.554Zm6.245-5.848H16V61.537H14.191Zm40.4,33.647H39.1V58.231H54.589v3.306Z" transform="translate(-0.001)" fill="#b20d1b"/>
</svg>
