<svg xmlns="http://www.w3.org/2000/svg" width="70.732" height="63.966" viewBox="0 0 70.732 63.966">
  <path id="ico_flat" data-name="ico flat" d="M66.7,43.179v-3.8a6.439,6.439,0,0,0-6.432-6.432H35.637a1.038,1.038,0,0,0,0,2.076H60.269a4.36,4.36,0,0,1,4.355,4.355v3.8a5.079,5.079,0,0,0-4.033,4.963V52H27.421V48.142a5.079,5.079,0,0,0-4.032-4.963v-3.8a4.36,4.36,0,0,1,4.355-4.355h3.741a1.038,1.038,0,0,0,0-2.076H27.744a6.439,6.439,0,0,0-6.432,6.432v3.8a5.079,5.079,0,0,0-4.033,4.963V62.928a1.038,1.038,0,0,0,1.038,1.038h32.02a1.038,1.038,0,1,0,0-2.076H27.421V54.074H60.591V61.89h-6.1a1.038,1.038,0,0,0,0,2.076h15.2a1.038,1.038,0,0,0,1.038-1.038V48.142A5.079,5.079,0,0,0,66.7,43.179ZM19.356,48.142a2.994,2.994,0,0,1,5.989,0V61.89H19.356Zm49.3,13.748H62.668V48.142a2.994,2.994,0,0,1,5.989,0V61.89Zm-42.2-36.354a1.049,1.049,0,0,0,1.033.937h33.04a1.05,1.05,0,0,0,1.038-1.038V1.038A1.049,1.049,0,0,0,60.526,0H54.491a1.038,1.038,0,1,0,0,2.076H58.02L56.1,4H31.914L29.992,2.076H50.338a1.038,1.038,0,0,0,0-2.076H27.486a1.05,1.05,0,0,0-1.038,1.038v24.4C26.448,25.468,26.45,25.5,26.453,25.536ZM29.992,24.4l1.922-1.922H56.1L58.02,24.4Zm25.5-4H46.057l-1.731-1.922,5.612-6.234a.853.853,0,0,1,1.26,0l4.291,4.72Zm-12.226,0H32.522v-.757l4.543-5.047a.659.659,0,0,1,.973,0ZM59.488,3.545V22.928l-1.922-1.922V5.467Zm-4,10.334-2.751-3.026a2.951,2.951,0,0,0-4.342,0L42.93,16.924,39.582,13.2a2.731,2.731,0,0,0-4.059,0l-3,3.333V6.075H55.49ZM30.446,5.467v15.54l-1.922,1.922V3.545ZM11.7,58.149H10.682V22.219h2.667V33.966a1.038,1.038,0,1,0,2.076,0V22.219H18.25a1.049,1.049,0,0,0,1.012-1.27L15.621,5.026a1.038,1.038,0,0,0-1.012-.807H4.678a1.038,1.038,0,0,0-1.012.807L.026,20.95a1.049,1.049,0,0,0,1.012,1.27H8.606v35.93H7.587a4.628,4.628,0,0,0-4.623,4.623v.156A1.038,1.038,0,0,0,4,63.966H15.286a1.038,1.038,0,0,0,1.038-1.038v-.156A4.628,4.628,0,0,0,11.7,58.149ZM5.506,6.3h8.276l3.166,13.848H2.34ZM5.2,61.89a2.551,2.551,0,0,1,2.389-1.665H11.7A2.551,2.551,0,0,1,14.09,61.89ZM42.93,13.071A2.932,2.932,0,1,0,40,10.139a2.935,2.935,0,0,0,2.932,2.932m0-3.787a.855.855,0,1,1-.855.855.856.856,0,0,1,.855-.855" transform="translate(0)" fill="#b20d1b"/>
</svg>
