<svg xmlns="http://www.w3.org/2000/svg" width="17.56" height="17.56" viewBox="0 0 17.56 17.56">
  <g id="telephone_126341" transform="translate(-0.006)">
    <g id="Grupo_14" data-name="Grupo 14" transform="translate(0.006)">
      <path id="Caminho_18" data-name="Caminho 18" d="M13.356,56.068a1.23,1.23,0,0,0-1.86,0c-.435.431-.87.862-1.3,1.3a.256.256,0,0,1-.358.066c-.281-.153-.581-.278-.851-.446a13.49,13.49,0,0,1-3.252-2.96,7.7,7.7,0,0,1-1.166-1.867.267.267,0,0,1,.066-.343c.435-.42.859-.851,1.286-1.283a1.235,1.235,0,0,0,0-1.9c-.34-.343-.68-.68-1.019-1.023s-.7-.705-1.052-1.052a1.238,1.238,0,0,0-1.86,0c-.438.431-.859.873-1.3,1.3a2.118,2.118,0,0,0-.665,1.429,6.053,6.053,0,0,0,.468,2.605A15.832,15.832,0,0,0,3.3,56.572a17.389,17.389,0,0,0,5.759,4.506,8.329,8.329,0,0,0,3.19.928,2.338,2.338,0,0,0,2.006-.764c.373-.417.793-.8,1.188-1.195a1.243,1.243,0,0,0,.007-1.893Q14.4,57.108,13.356,56.068Z" transform="translate(-0.006 -44.452)" fill="#fff"/>
      <path id="Caminho_19" data-name="Caminho 19" d="M241.815,101.2l1.348-.23A6.052,6.052,0,0,0,238.044,96l-.19,1.356a4.678,4.678,0,0,1,3.961,3.84Z" transform="translate(-229.163 -92.492)" fill="#fff"/>
      <path id="Caminho_20" data-name="Caminho 20" d="M248.644,2.843A9.942,9.942,0,0,0,242.944,0l-.19,1.356A8.675,8.675,0,0,1,250.1,8.47l1.348-.23A10.015,10.015,0,0,0,248.644,2.843Z" transform="translate(-233.884)" fill="#fff"/>
    </g>
  </g>
</svg>
